<?xml version='1.0' encoding='utf-8'?>
<svg xmlns="http://www.w3.org/2000/svg" version="1.1" id="svg2" width="3000" height="2500" viewBox="0 0 3000.0001 2500"> <metadata id="metadata8"> </metadata> <defs id="defs6"/> <g id="g12" style="display:inline" transform="matrix(-2.1282353,0,0,2.1282353,2920.2894,256.82355)"> <path style="display:inline;fill:#a79182;fill-opacity:1;stroke-width:1.33333325" d="M 133.27908,828.80073 C 415.83252,724.99507 451.5906,655.44322 739.36564,752.30424 632.26043,739.28375 531.60069,743.05442 474.91868,751.43437 450.29535,755.07471 440.62204,758.63498 401.33332,778.5175 328.80911,815.21922 175.74189,886.65068 168,887.40651 c -41.39137,-16.03304 -36.65067,-47.747 -34.72092,-58.60578 z" id="path26"/> <path style="display:inline;fill:#69605a;fill-opacity:1;stroke-width:1.33333325" d="M 127.21247,818.99998 C 112.12547,787.2423 96.357436,736.8778 88.075882,696.87287 178.65485,681.26179 248.46729,674.25318 413.86441,690.29161 c -0.52042,0.84209 1.00335,8.06611 2.32883,14.08971 3.96506,18.01913 4.07274,17.70482 -7.19325,20.9986 -5.31667,1.5544 -17.45831,5.20225 -26.98141,8.10633 -19.6015,5.97749 -19.66527,5.96304 -21.28263,-4.82227 -1.59772,-10.65437 -2.71683,-11.22076 -25.40263,-12.85656 -39.03731,-2.81486 -104.29583,0.23023 -147.92623,6.90252 -22.04229,3.37088 -25.30272,4.27344 -25.85853,7.15824 -0.2483,1.2887 5.9017,18.08587 13.66666,37.32704 7.76496,19.24117 16.04068,38.50286 16.04068,39.59945 0,2.06016 -52.37142,22.544 -56.86182,22.54044 -1.52275,-10e-4 -3.89235,-3.41133 -7.18161,-10.33513 z" id="path24"/> <path style="display:inline;fill:#00c500;fill-opacity:1;stroke-width:1.33333325" d="M 1030.2847,802.57937 C 949.36592,797.71633 850.28655,780.30759 680.66665,741.14973 540.63615,708.82276 473.16892,695.75026 423.99999,691.41782 357.27383,685.53834 307.95014,683.88526 245.71482,685.44261 170.2607,687.33074 139.15798,689.83038 62.309976,700.18234 27.168789,704.9161 13.466588,702.34564 5.5881897,689.54161 1.0172767,682.11293 -0.48411692,673.77526 0.76343441,662.74837 2.1661105,650.35034 2.5277495,650.10932 20.890805,649.33332 l 18.908967,-2.75601 2.044376,-59.1073 C 49.83521,573.77845 65.421322,570.71683 85.048458,566.79137 108.22653,443.33353 145.48797,304.37104 243.64041,188.22146 292.33672,113.1979 368.09848,86.993342 445.72587,75.747638 c 72.99699,-26.541246 156.071,-27.053232 216.79332,-27.054165 83.33731,0.0294 83.00122,0.71902 125.46776,8.685858 173.82183,32.609432 295.20915,147.120359 358.60745,338.293059 23.3293,70.34765 37.8657,151.73742 40.7797,228.32759 0.4325,11.36667 1.0385,21.92458 1.3468,23.46202 0.373,1.86014 10.7174,9.86958 30.9198,23.94056 29.921,27.71678 79.7818,51.23043 108.1133,81.14964 11.9319,12.58404 7.1039,23.71118 -3.8536,29.2873 -41.3912,21.09606 -176.7636,27.47184 -293.6157,20.73987 z" id="path22"/> <path style="display:inline;fill:#0084c8;stroke-width:1.33333325" d="m 364.66666,573.33359 c 52.50357,7.90299 153.88813,19.47199 158.75427,22.07627 2.31408,1.23845 3.50954,5.49235 2.45277,34.28215 -1.21806,33.18421 0.8588,38.20024 -18.03596,30.72459 -41.97523,-16.60739 -103.83276,-22.10993 -181.96048,-25.89326 -29.00735,-1.40469 -123.72829,-0.93333 -136.54393,0.67948 -2.56667,0.323 -11.86667,0.96847 -20.66667,1.43437 -24.55748,1.30016 -59.35595,4.32658 -95.104049,8.27118 -27.935657,3.08253 -32.621333,3.31414 -33.762839,1.66894 -0.833572,-1.2014 1.378956,-40.85397 1.815333,-59.4596 13.324475,-20.70039 39.843539,-15.04299 42.095094,-16.78107 120.117981,2.95247 180.754251,-4.78694 280.956461,2.99695 z" id="path20"/> <path style="display:inline;fill:#00a800;fill-opacity:1;stroke-width:1.22575307" d="m 187.37891,633.00195 c -247.447391,181.33986 234.8305,114.30746 470.94726,61.73633 23.02274,-6.59009 58.14016,-15.18594 71.48633,-20.26953 5.73039,-2.18274 11.46396,-4.33753 12.74023,-4.78906 1.27629,-0.45155 2.08075,-1.06184 1.78711,-1.35547 -2.10115,-2.10116 -174.86799,-7.74487 -187.3125,-5.76367 l -16.22461,2.36328 c 0,1.68778 -13.0395,4.77822 -35.91601,5.93945 -6.74165,0.34221 -13.08446,0.92229 -14.0957,1.28906 -4.54228,1.64745 -113.27945,2.64825 -132.38086,1.21875 -24.27562,-1.81671 -27.95373,-2.12397 -46.57813,-3.90234 -4.3821,-0.41843 -16.79348,-2.42614 -27.58008,-4.46094 -10.78659,-2.03478 -23.74845,-4.40828 -28.80468,-5.27539 -5.05624,-0.86712 -12.31516,-2.44642 -16.13086,-3.50781 -20.55147,-5.71682 -32.69413,-9.73184 -38.8711,-12.85352 -7.06162,-3.56882 -10.96871,-7.25266 -13.0664,-10.36914 z" transform="matrix(-1.0877666,0,0,1.0877666,1392.5331,-40.957742)" id="path822"/> <path style="display:inline;fill:#0084c8;fill-opacity:1;stroke-width:1.22575307" d="m 431.9668,248.70117 c -4.87754,0.3472 -13.35095,8.62282 -19.0586,25.57813 -5.63871,15.33398 -6.93524,49.92457 -2.52539,67.36132 3.8063,15.05024 6.65437,24.63129 7.74805,26.06446 0.63571,0.83306 1.89746,3.44512 2.80469,5.80469 0.90721,2.35957 3.20694,7.55877 5.10937,11.55468 1.90242,3.99592 7.91039,12.18275 8.625,13.26367 6.42709,9.72163 25.59898,35.87596 45.03516,55.89258 24.27661,25.00164 28.15225,28.99675 34.82031,38.44922 11.49134,16.2898 12.10709,26.88904 12.01953,45.08985 -4.48443,46.09215 3.5494,89.93683 14.25781,127.16406 l 16.22461,-2.36328 c -8.73497,-25.01762 -11.36519,-71.18909 -12.27929,-86.74219 -3.65999,-62.38908 -9.57783,-90.5648 -25.59766,-115.16992 -3.2919,-5.05609 -4.08326,-9.49492 -3.83008,-13.17188 l -13.91015,-22.12695 c -6.5758,-3.78563 -25.31205,-26.78928 -37.34571,-43.91016 -4.25038,-6.04722 -7.69107,-11.4104 -7.64648,-11.91992 0.0446,-0.50953 -1.49436,-4.09621 -3.41992,-7.96875 -4.04739,-8.1398 -11.64873,-26.99526 -13.58594,-33.70117 -0.73032,-2.52812 -1.86464,-6.38905 -2.52149,-8.58008 -0.65682,-2.19104 -2.31259,-10.51662 -3.67773,-18.50195 -2.69175,-15.74535 -2.41909,-32.91894 0.61523,-38.83985 3.55079,-8.97076 1.93232,-13.4966 -1.86132,-13.22656 z" transform="matrix(-1.0877666,0,0,1.0877666,1392.5331,-40.957742)" id="path830"/> <path style="display:inline;fill:#00a800;fill-opacity:1;stroke-width:1.22575307" d="m 1006.7811,216.80706 c 10.1206,13.04046 29.309,47.02879 35.4806,63.58161 2.4109,6.46627 8.859,27.86178 10.3672,34.39844 3.992,17.30198 6.121,51.93124 4.4395,72.2207 -1.0128,12.21995 -5.4027,39.6563 -7.3516,45.95117 -0.6262,2.0225 -2.3187,7.53867 -3.7617,12.25782 -2.9741,9.72637 -12.4911,33.08396 -16.4805,40.44922 -9.4833,17.50817 -20.455,34.58732 -25.9961,40.46484 -1.2786,1.35624 -2.8397,3.3751 -3.4687,4.48633 -0.62909,1.11123 -5.96632,7.50958 -11.85941,14.21875 l -10.71289,12.87453 c 93.2837,0.93153 180.6589,8.03501 226.8674,-0.5657 -1.172,-3.08997 -2.2064,-5.0884 -3.0764,-13.86938 -2.2509,-22.71847 -13.8646,-81.12243 -21.6933,-109.0918 -22.3126,-79.71509 -54.2352,-145.50807 -92.3555,-190.3457 -4.7515,-5.58879 -10.4812,-12.48399 -12.7324,-15.32227 -11.3695,-14.33408 -25.6005,-19.45253 -36.4649,-21.15624 -20.5971,2.55881 -30.1585,4.29973 -31.2013,9.44768 z" transform="matrix(-1.0877666,0,0,1.0877666,1392.5331,-40.957742)" id="path18"/> <path id="path16" d="m 1188.7086,647.60064 c 29.3304,21.08962 132.4788,90.62053 142.5888,109.7667 3.5558,7.39348 0.4005,12.0511 -1.0984,13.79678 -13.17,13.00444 -41.9069,19.77829 -186.8069,24.29417 -146.43162,3.61772 -302.97533,-27.56842 -470.41873,-81.48265 -5.90196,-2.56574 -3.53209,-2.40957 9.02719,0.59276 54.31985,12.9853 137.30906,27.92152 192.66641,34.67468 117.921,3.77616 483.87803,55.18983 314.04163,-101.64244 z" style="display:inline;fill:#008500;fill-opacity:1;stroke-width:1.33333325"/> <path id="path849" d="m 254.17045,562.21096 c 3.60888,0.005 7.53246,0.0219 11.82946,0.0488 22.73335,0.14312 45.53284,0.84619 50.66616,1.56153 5.13333,0.71534 13.83335,1.92593 19.33335,2.6918 5.5,0.7659 25.001,2.95808 43.33433,4.87158 34.22655,3.57231 82.63556,9.8491 122.66693,15.90434 16.73773,2.53179 23.10168,4.01163 24.3324,5.65766 1.23602,1.65311 1.66778,11.42274 1.66778,37.81051 0,26.84167 -0.41051,35.92112 -1.66778,36.96069 -1.18235,0.97763 -3.99143,0.43645 -9.66668,-1.86109 -4.39999,-1.78126 -8.75001,-4.24153 -9.66666,-5.46858 -1.20787,-1.61683 -1.66565,-9.83137 -1.66565,-29.84135 v -27.6127 l -17.0006,-0.77121 c -31.97474,-1.45424 -68.99408,-4.80821 -97.66742,-8.84873 -47.75111,-6.72885 -70.61334,-8.49699 -110.00034,-8.50242 -20.02796,-0.003 -41.61806,0.70378 -48.66483,1.59129 -77.21011,9.72423 -107.78462,10.49811 -141.333191,3.58198 -15.280184,-3.15004 -33.576527,-4.66384 -41.347858,-3.42265 -4.025932,0.64298 -7.606643,0.89357 -7.956468,0.55663 -0.349717,-0.33693 0.849872,-3.42741 2.666333,-6.86652 4.918337,-9.31198 13.683125,-13.60798 30.457465,-14.93342 8.352633,-0.66 15.410933,-0.48582 20.178941,0.49927 4.566226,0.94339 22.677648,1.49975 47.999768,1.47655 32.42959,-0.0297 44.85286,-0.56949 61.3335,-2.6663 15.03979,-1.9135 24.9091,-2.45649 50.17106,-2.41773 z" style="display:inline;fill:#005c94;stroke-width:1.33333325"/> <path id="path841" d="m 662.49725,48.681024 c 1.17949,0.03797 3.2686,5.213048 5.88711,9.156786 5.37347,8.093043 18.78437,19.537779 37.76376,32.227208 7.07514,4.730359 13.06773,8.602286 13.31665,8.602286 0.24892,0 5.42128,2.902386 11.49379,6.450106 16.74341,9.78196 44.55023,24.09469 69.0413,35.53725 69.57454,32.50619 98.78808,52.30593 121.34971,82.24748 10.32309,13.69976 23.28636,39.57253 20.98201,41.87689 -0.39598,0.39597 -5.43219,-5.13504 -11.19211,-12.29049 -14.9026,-18.5133 -19.41974,-23.35179 -34.74479,-37.21989 C 846.02887,169.69104 785.58201,136.26006 713.3652,114.04262 640.14783,91.517338 559.65925,80.023822 474.99985,80.005298 c -17.32267,-0.0033 -29.25922,-3.502315 -29.25922,-4.289445 0,-2.82989 42.31088,-12.871257 71.66088,-18.183977 33.62913,-6.087306 56.5918,-8.62608 100.94771,-8.600155 22.73334,0.01332 42.96852,-0.288666 44.14803,-0.250697 z M 356.61387,177.0736 c 28.82565,-0.12764 57.78087,0.82762 81.38705,2.88938 111.46705,9.7355 208.50579,41.97965 281.99924,93.7009 38.52054,27.10896 67.25939,55.79928 95.60023,95.44089 8.67232,12.13036 27.37512,43.52686 34.70018,58.25075 2.36536,4.75453 5.06625,8.64477 6.00184,8.64477 0.93556,0 5.29946,-3.37872 9.69854,-7.50813 4.39907,-4.12941 11.59406,-10.27995 15.98932,-13.6672 8.25868,-6.36462 34.84428,-22.82398 36.8651,-22.82398 2.13949,0 1.15209,2.70257 -4.22361,11.55115 -8.99572,14.80725 -25.36707,34.60468 -49.19168,59.48936 -43.28852,45.21458 -44.89594,49.11396 -43.58079,105.62596 1.39212,59.81914 -2.75119,97.06622 -12.16725,109.88567 l -23.80127,2.92338 c -0.92496,-1.44242 -0.28765,-4.36164 1.44044,-10.80969 3.48203,-12.99252 5.8122,-34.35721 8.65751,-79.3326 3.25718,-51.48573 7.2242,-79.98987 13.90727,-99.96192 4.52657,-13.52748 11.27214,-28.09522 16.69042,-36.03864 3.69279,-5.41378 3.45357,-8.94597 -1.23436,-18.17123 C 806.73129,400.51917 764.97233,349.76862 726.7902,317.3785 644.41055,247.49537 545.38514,208.09032 423.22259,196.57904 c -25.49202,-2.40209 -98.56623,-2.88488 -115.22253,-0.76058 -7.56994,0.54913 -44.74611,2.37443 -76.41556,6.91539 0,-3.13844 8.00868,-12.35242 15.58563,-16.04456 7.03306,-3.42716 11.02506,-4.25902 28.83006,-6.00821 23.09121,-2.26854 51.78804,-3.47984 80.61368,-3.60748 z" style="display:inline;fill:#005c94;fill-opacity:1;stroke-width:1.33333325"/> <path style="display:inline;fill:#a25681;fill-opacity:1;stroke-width:1.33333325" d="M 831.14055,447.13331 C 817.18004,417.99905 787.66097,377.53967 758.36407,347.38458 697.46291,284.69945 626.75259,242.8188 539.89691,217.98981 452.58016,193.029 360.35488,187.69268 250.55497,201.24795 c -9.35617,1.15506 -17.64922,1.88743 -18.42901,1.62751 -2.87344,-0.95781 4.4134,-7.72333 12.49092,-11.59726 7.10987,-3.40987 11.30335,-4.2774 29.61599,-6.12689 11.73333,-1.18502 38.13333,-2.50203 58.66666,-2.9267 92.11311,-1.90508 173.41545,9.00118 247.33333,33.17836 121.27916,39.66819 206.61519,109.65101 257.45855,211.138 10.35286,20.66505 10.54744,22.16266 3.91107,30.10197 l -3.75344,4.49037 z" id="path14"/> </g> </svg>